<?xml version="1.0" encoding="UTF-8" standalone="no"?>
<svg
   width="1242"
   height="1242"
   viewBox="0 0 1242 1242"
   fill="none"
   version="1.1"
   xmlns="http://www.w3.org/2000/svg">
  <rect width="1242" height="1242" fill="#FFFFFF"/>
  <g transform="translate(258, 440)">
    <!-- Logo Mindwell - versão simplificada para splash screen -->
    <!-- Cérebro estilizado -->
    <path 
      d="M362 75c-58.7-6.7-110-1-131 10c-21 11-34.7 43-41 65c-6.3 22-3.7 33.3-2 37c3.2 7.9 9.5 5.5 18 3c8.5-2.5 19.5-9.5 28-12c8.5-2.5 24.5 0.5 30 2c5.5 1.5-2.5-27.5-7-32c-4.5-4.5 8-10 18-8c10 2 29 20 34 29c5 9 3 23 0 31s-15 32-10 36c5 4 10 1 19-4c9-5 17-13 29-19c12-6 30-14 45-13c15 1 29 6 41 15c12 9 19 17 26 33c7 16 13 33 10 47c-3 14-19 30-29 38c-10 8-30 27-22 35c8 8 24 8 37 5c13-3 33-13 45-25c12-12 27-42 32-54c5-12 12-40 11-55c-1-15-10-37-18-48c-8-11-19-21-35-32c-16-11-41-25-68-42C395.3 87.7 379 76.8 362 75z"
      fill="#6C8EFF"/>
    
    <!-- Forma de coração -->
    <path 
      d="M250 80c-15.3-2.7-27-2-39 0c-12 2-27 6-41 16c-14 10-24 24-28 36c-4 12-6 19-5 34c1 15 4 24 11 39c7 15 20 34 28 43c8 9 15 17 24 29c9 12 21 29 31 37c10 8 21 14 43 20c22 6 56 11 80 11c24 0 48-2 58-5c10-3 10-6 6-9c-4-3-16-7-26-12c-10-5-15-11-22-22c-7-11-14-25-16-38c-2-13 1-30 7-41c6-11 13-17 22-22c9-5 25-10 34-11c9-1 16 1 22 4c6 3 11 7 14 17c3 10 3 18 1 32c-2 14-9 34-15 42c-6 8-9 5-15 0c-6-5-15-12-19-23c-4-11-5-17-3-29c2-12 5-20 13-27c8-7 17-10 25-9c8 1 16 5 23 13c7 8 14 22 15 29c1 7-4 13-11 17c-7 4-14 3-20 0c-6-3-12-10-15-15c-3-5-5-8-4-12c1-4 2-6 7-7c5-1 11 0 14 2c3 2 2 5 0 7c-2 2-3 3-5 3c-2 0-5-1-6-2c-1-1-1-2-1-3"
      stroke="#A8E6CF"
      strokeWidth="18"
      fill="none"
      strokeLinecap="round"
      strokeLinejoin="round"/>
    
    <!-- Texto "MindWell" -->
    <text
       xml:space="preserve"
       style="font-size:120px;font-family:'Poppins', sans-serif;font-weight:600;fill:#2F2F2F;"
       x="280"
       y="200"
       text-anchor="middle">MindWell</text>
    
    <!-- Slogan "Cuide da mente. Viva melhor." -->
    <text
       xml:space="preserve"
       style="font-size:40px;font-family:'Inter', sans-serif;fill:#666666;"
       x="280"
       y="270"
       text-anchor="middle">Cuide da mente. Viva melhor.</text>
  </g>
</svg>