<?xml version="1.0" encoding="UTF-8" standalone="no"?>
<svg
   width="512"
   height="512"
   viewBox="0 0 512 512"
   fill="none"
   xmlns="http://www.w3.org/2000/svg">
  <circle cx="256" cy="256" r="256" fill="#6C8EFF"/>
  <path
     d="M124 214C151.5 189.5 181 245 256 245C331 245 358.5 190 387 214C415.5 238 387 268 256 268C125 268 94 241 124 214Z"
     stroke="white"
     stroke-width="24"
     stroke-linecap="round"
     stroke-linejoin="round"/>
  <path
     d="M124 164C151.5 139.5 181 195 256 195C331 195 358.5 140 387 164C415.5 188 387 218 256 218C125 218 94 191 124 164Z"
     stroke="white"
     stroke-width="24"
     stroke-linecap="round"
     stroke-linejoin="round"/>
  <path
     d="M124 264C151.5 239.5 181 295 256 295C331 295 358.5 240 387 264C415.5 288 387 318 256 318C125 318 94 291 124 264Z"
     stroke="white"
     stroke-width="24"
     stroke-linecap="round"
     stroke-linejoin="round"/>
</svg>